<svg xmlns="http://www.w3.org/2000/svg" width="808" height="808" viewBox="0 0 808 808">
  <g id="Artwork_2" data-name="Artwork 2" transform="translate(404 404)">
    <g id="Group_18" data-name="Group 18" transform="translate(-404 -404)">
      <path id="Path_158" data-name="Path 158" d="M539.2,1080.5h.789c-.26,0-.529,0-.789-.008Z" transform="translate(-135.984 -272.497)" fill="#fff"/>
      <path id="Path_159" data-name="Path 159" d="M809.32,1080.5h.789c-.26,0-.529,0-.789-.008Z" transform="translate(-204.109 -272.497)" fill="#fff"/>
      <path id="Path_160" data-name="Path 160" d="M1011.847,0h-.394C904.164,0,816.4,83.657,809.847,189.3v12.309h202Z" transform="translate(-204.242)" fill="#0000b2"/>
      <path id="Path_161" data-name="Path 161" d="M809.32,270.125v.008c.26-.008.529-.008.789-.008Z" transform="translate(-204.109 -68.125)" fill="#fff"/>
      <path id="Path_162" data-name="Path 162" d="M809,540.5v202c111.558,0,202-90.442,202-202H809Z" transform="translate(-204.028 -136.313)" fill="#000086"/>
      <path id="Path_163" data-name="Path 163" d="M1011.586,478.2c-105.49,0-192.1-80.871-201.211-183.994V478.2Z" transform="translate(-204.375 -74.198)" fill="#0000bf"/>
      <path id="Path_164" data-name="Path 164" d="M1080.234,540.247v-.008c-.26.008-.529.008-.789.008Z" transform="translate(-272.234 -136.247)" fill="#fff"/>
      <path id="Path_165" data-name="Path 165" d="M809.32,270.133q0,9.1.789,18V270.125C809.849,270.125,809.58,270.125,809.32,270.133Z" transform="translate(-204.109 -68.125)" fill="#fff"/>
      <path id="Path_166" data-name="Path 166" d="M810.375,270.125v18.006c9.114,103.123,95.721,183.994,201.211,183.994.26,0,.529,0,.789-.008C1012.367,360.56,921.933,270.125,810.375,270.125Z" transform="translate(-204.375 -68.125)" fill="#fff200"/>
      <path id="Path_167" data-name="Path 167" d="M270.125,540.25v202c111.558,0,202-90.442,202-202h-202Z" transform="translate(-68.125 -136.25)" fill="#000086"/>
      <path id="Path_168" data-name="Path 168" d="M539.2,810.383c.26-.008.529-.008.789-.008H539.2Z" transform="translate(-135.984 -204.375)" fill="#fff"/>
      <path id="Path_169" data-name="Path 169" d="M809.32,810.383c.26-.008.529-.008.789-.008h-.789Z" transform="translate(-204.109 -204.375)" fill="#fff"/>
      <path id="Path_170" data-name="Path 170" d="M540.25,742.25v-202h202C630.692,540.25,540.25,630.692,540.25,742.25Z" transform="translate(-136.25 -136.25)" fill="#000086"/>
      <path id="Path_171" data-name="Path 171" d="M540.25,742.25c0-111.558,90.442-202,202-202C742.25,651.808,651.808,742.25,540.25,742.25Z" transform="translate(-136.25 -136.25)" fill="#fff200"/>
      <path id="Path_172" data-name="Path 172" d="M590.75,458.608a100.938,100.938,0,1,0-41.591-45.971A100.56,100.56,0,0,0,590.75,458.608Z" transform="translate(-136.25 -68.125)" fill="navy"/>
      <path id="Path_173" data-name="Path 173" d="M1046.438,911.375a101,101,0,0,0-101-101v202A101,101,0,0,0,1046.438,911.375Z" transform="translate(-238.438 -204.375)" fill="#000086"/>
      <path id="Path_174" data-name="Path 174" d="M590.75,823.891a101.026,101.026,0,0,0,0,174.967,97.522,97.522,0,0,0,8.988,4.608,100.452,100.452,0,0,0,41.512,8.909v-202A100.561,100.561,0,0,0,590.75,823.891Z" transform="translate(-136.25 -204.375)" fill="#000086"/>
      <path id="Path_175" data-name="Path 175" d="M725.813,823.891a100.995,100.995,0,0,0,49.711,188.475c.26.008.529.008.789.008a101,101,0,1,0,0-202c-.26,0-.529,0-.789.008A100.434,100.434,0,0,0,725.813,823.891Z" transform="translate(-170.312 -204.375)" fill="#0000b2"/>
      <path id="Path_176" data-name="Path 176" d="M405.187,911.378a101.005,101.005,0,0,0,99.7,100.991h.513V810.386A100.993,100.993,0,0,0,405.187,911.378Z" transform="translate(-102.187 -204.378)" fill="#0000b2"/>
      <path id="Path_177" data-name="Path 177" d="M405.187,270.125a101,101,0,1,1,0,202v-202Z" transform="translate(-102.187 -68.125)" fill="#0000b2"/>
      <path id="Path_178" data-name="Path 178" d="M202,810.375H0a101,101,0,0,0,101,101,101,101,0,0,0-101,101H202a101,101,0,0,0,0-202Z" transform="translate(0 -204.375)" fill="navy"/>
    </g>
  </g>
</svg>
