<svg xmlns="http://www.w3.org/2000/svg" width="977.561" height="1079.888" viewBox="0 0 977.561 1079.888">
  <g id="Group_64" data-name="Group 64" transform="translate(0.014 -1079.559)" opacity="0.45">
    <g id="Artwork_3" data-name="Artwork 3" transform="translate(181.193 1260.298)">
      <g id="Group_82" data-name="Group 82" transform="translate(-181.193 -180.298)">
        <path id="Path_667" data-name="Path 667" d="M204,180.3q4.456.013,8.849.233h.009A180.048,180.048,0,0,0,325.744,133.6,74.29,74.29,0,0,1,337.6,121.745,180.118,180.118,0,0,0,383.851,18.1V.01A180.738,180.738,0,0,0,204,180.3Z" transform="translate(-21.465 -0.001)" fill="none" stroke="#666" stroke-width="0.895"/>
        <path id="Path_668" data-name="Path 668" d="M2,.01a180.759,180.759,0,0,0,171.44,180.5h.009q4.174-.2,8.4-.215A180.738,180.738,0,0,0,2,.01Z" transform="translate(-0.21 -0.001)" fill="none" stroke="#666" stroke-width="0.895"/>
        <path id="Path_669" data-name="Path 669" d="M121,0a74.266,74.266,0,0,0,74.267,74.267A74.266,74.266,0,0,0,269.534,0" transform="translate(-12.732)" fill="none" stroke="#e6e7e8" stroke-width="0.895"/>
        <path id="Path_670" data-name="Path 670" d="M396.267,118a73.951,73.951,0,0,0-46.251,16.16q-5.651,6.2-11.856,11.856a74.267,74.267,0,0,0,58.107,120.518" transform="translate(-33.881 -12.416)" fill="none" stroke="#939598" stroke-width="0.895"/>
        <path id="Path_671" data-name="Path 671" d="M0,266.525c.3.009.6.009.895.009A74.267,74.267,0,1,0,.895,118c-.3,0-.6,0-.895.009" transform="translate(0 -12.416)" fill="none" stroke="#939598" stroke-width="0.895"/>
        <path id="Path_672" data-name="Path 672" d="M383.851,369.522A180.772,180.772,0,0,0,212.858,201.76h-.009q-4.389.215-8.849.215c0,93.71,71.323,170.769,162.653,179.851h17.2Z" transform="translate(-21.465 -21.229)" fill="none" stroke="#666" stroke-width="0.895"/>
        <path id="Path_673" data-name="Path 673" d="M181.8,201.973v-.009c-2.819-.009-5.619-.089-8.4-.224h-.009A180.749,180.749,0,0,0,1.5,381.824H19.154A180.774,180.774,0,0,0,181.8,201.973Z" transform="translate(-0.158 -21.227)" fill="none" stroke="#666" stroke-width="0.895"/>
        <path id="Path_674" data-name="Path 674" d="M269.526,394.372a74.263,74.263,0,0,0-148.516,0" transform="translate(-12.733 -33.775)" fill="none" stroke="#e6e7e8" stroke-width="0.895"/>
      </g>
    </g>
    <g id="Artwork_3-2" data-name="Artwork 3" transform="translate(540.895 1260.298)">
      <g id="Group_82-2" data-name="Group 82" transform="translate(-181.193 -180.298)">
        <path id="Path_667-2" data-name="Path 667" d="M204,180.3q4.456.013,8.849.233h.009A180.048,180.048,0,0,0,325.744,133.6,74.29,74.29,0,0,1,337.6,121.745,180.118,180.118,0,0,0,383.851,18.1V.01A180.738,180.738,0,0,0,204,180.3Z" transform="translate(-21.465 -0.001)" fill="none" stroke="#666" stroke-width="0.895"/>
        <path id="Path_668-2" data-name="Path 668" d="M2,.01a180.759,180.759,0,0,0,171.44,180.5h.009q4.174-.2,8.4-.215A180.738,180.738,0,0,0,2,.01Z" transform="translate(-0.21 -0.001)" fill="none" stroke="#666" stroke-width="0.895"/>
        <path id="Path_669-2" data-name="Path 669" d="M121,0a74.266,74.266,0,0,0,74.267,74.267A74.266,74.266,0,0,0,269.534,0" transform="translate(-12.732)" fill="none" stroke="#e6e7e8" stroke-width="0.895"/>
        <path id="Path_670-2" data-name="Path 670" d="M396.267,118a73.951,73.951,0,0,0-46.251,16.16q-5.651,6.2-11.856,11.856a74.267,74.267,0,0,0,58.107,120.518" transform="translate(-33.881 -12.416)" fill="none" stroke="#939598" stroke-width="0.895"/>
        <path id="Path_671-2" data-name="Path 671" d="M0,266.525c.3.009.6.009.895.009A74.267,74.267,0,1,0,.895,118c-.3,0-.6,0-.895.009" transform="translate(0 -12.416)" fill="none" stroke="#939598" stroke-width="0.895"/>
        <path id="Path_672-2" data-name="Path 672" d="M383.851,369.522A180.772,180.772,0,0,0,212.858,201.76h-.009q-4.389.215-8.849.215c0,93.71,71.323,170.769,162.653,179.851h17.2Z" transform="translate(-21.465 -21.229)" fill="none" stroke="#666" stroke-width="0.895"/>
        <path id="Path_673-2" data-name="Path 673" d="M181.8,201.973v-.009c-2.819-.009-5.619-.089-8.4-.224h-.009A180.749,180.749,0,0,0,1.5,381.824H19.154A180.774,180.774,0,0,0,181.8,201.973Z" transform="translate(-0.158 -21.227)" fill="none" stroke="#666" stroke-width="0.895"/>
        <path id="Path_674-2" data-name="Path 674" d="M269.526,394.372a74.263,74.263,0,0,0-148.516,0" transform="translate(-12.733 -33.775)" fill="none" stroke="#e6e7e8" stroke-width="0.895"/>
      </g>
    </g>
    <g id="Artwork_3-3" data-name="Artwork 3" transform="translate(181.193 1619)">
      <g id="Group_82-3" data-name="Group 82" transform="translate(-181.193 -180.298)">
        <path id="Path_667-3" data-name="Path 667" d="M204,180.3q4.456.013,8.849.233h.009A180.048,180.048,0,0,0,325.744,133.6,74.29,74.29,0,0,1,337.6,121.745,180.118,180.118,0,0,0,383.851,18.1V.01A180.738,180.738,0,0,0,204,180.3Z" transform="translate(-21.465 -0.001)" fill="none" stroke="#666" stroke-width="0.895"/>
        <path id="Path_668-3" data-name="Path 668" d="M2,.01a180.759,180.759,0,0,0,171.44,180.5h.009q4.174-.2,8.4-.215A180.738,180.738,0,0,0,2,.01Z" transform="translate(-0.21 -0.001)" fill="none" stroke="#666" stroke-width="0.895"/>
        <path id="Path_669-3" data-name="Path 669" d="M121,0a74.266,74.266,0,0,0,74.267,74.267A74.266,74.266,0,0,0,269.534,0" transform="translate(-12.732)" fill="none" stroke="#e6e7e8" stroke-width="0.895"/>
        <path id="Path_670-3" data-name="Path 670" d="M396.267,118a73.951,73.951,0,0,0-46.251,16.16q-5.651,6.2-11.856,11.856a74.267,74.267,0,0,0,58.107,120.518" transform="translate(-33.881 -12.416)" fill="none" stroke="#939598" stroke-width="0.895"/>
        <path id="Path_671-3" data-name="Path 671" d="M0,266.525c.3.009.6.009.895.009A74.267,74.267,0,1,0,.895,118c-.3,0-.6,0-.895.009" transform="translate(0 -12.416)" fill="none" stroke="#939598" stroke-width="0.895"/>
        <path id="Path_672-3" data-name="Path 672" d="M383.851,369.522A180.772,180.772,0,0,0,212.858,201.76h-.009q-4.389.215-8.849.215c0,93.71,71.323,170.769,162.653,179.851h17.2Z" transform="translate(-21.465 -21.229)" fill="none" stroke="#666" stroke-width="0.895"/>
        <path id="Path_673-3" data-name="Path 673" d="M181.8,201.973v-.009c-2.819-.009-5.619-.089-8.4-.224h-.009A180.749,180.749,0,0,0,1.5,381.824H19.154A180.774,180.774,0,0,0,181.8,201.973Z" transform="translate(-0.158 -21.227)" fill="none" stroke="#666" stroke-width="0.895"/>
        <path id="Path_674-3" data-name="Path 674" d="M269.526,394.372a74.263,74.263,0,0,0-148.516,0" transform="translate(-12.733 -33.775)" fill="none" stroke="#e6e7e8" stroke-width="0.895"/>
      </g>
    </g>
    <g id="Artwork_4" data-name="Artwork 4" transform="translate(128.401 1978.702)">
      <g id="Group_83" data-name="Group 83" transform="translate(-128.401 -180.298)">
        <path id="Path_675" data-name="Path 675" d="M2,.01a180.759,180.759,0,0,0,171.44,180.5h.009q4.174-.2,8.4-.215A180.738,180.738,0,0,0,2,.01Z" transform="translate(-0.21 -0.001)" fill="none" stroke="#666" stroke-width="0.895"/>
        <path id="Path_676" data-name="Path 676" d="M121,0a74.266,74.266,0,0,0,74.267,74.267A74.266,74.266,0,0,0,269.534,0" transform="translate(-12.732)" fill="none" stroke="#e6e7e8" stroke-width="0.895"/>
        <path id="Path_677" data-name="Path 677" d="M0,266.525c.3.009.6.009.895.009A74.267,74.267,0,1,0,.895,118c-.3,0-.6,0-.895.009" transform="translate(0 -12.416)" fill="none" stroke="#939598" stroke-width="0.895"/>
        <path id="Path_678" data-name="Path 678" d="M181.8,201.973v-.009c-2.819-.009-5.619-.089-8.4-.224h-.009A180.749,180.749,0,0,0,1.5,381.824H19.154A180.774,180.774,0,0,0,181.8,201.973Z" transform="translate(-0.158 -21.227)" fill="none" stroke="#666" stroke-width="0.895"/>
      </g>
    </g>
    <g id="Artwork_4-2" data-name="Artwork 4" transform="translate(488.103 1619)">
      <g id="Group_83-2" data-name="Group 83" transform="translate(-128.401 -180.298)">
        <path id="Path_675-2" data-name="Path 675" d="M2,.01a180.759,180.759,0,0,0,171.44,180.5h.009q4.174-.2,8.4-.215A180.738,180.738,0,0,0,2,.01Z" transform="translate(-0.21 -0.001)" fill="none" stroke="#666" stroke-width="0.895"/>
        <path id="Path_676-2" data-name="Path 676" d="M121,0a74.266,74.266,0,0,0,74.267,74.267A74.266,74.266,0,0,0,269.534,0" transform="translate(-12.732)" fill="none" stroke="#e6e7e8" stroke-width="0.895"/>
        <path id="Path_677-2" data-name="Path 677" d="M0,266.525c.3.009.6.009.895.009A74.267,74.267,0,1,0,.895,118c-.3,0-.6,0-.895.009" transform="translate(0 -12.416)" fill="none" stroke="#939598" stroke-width="0.895"/>
        <path id="Path_678-2" data-name="Path 678" d="M181.8,201.973v-.009c-2.819-.009-5.619-.089-8.4-.224h-.009A180.749,180.749,0,0,0,1.5,381.824H19.154A180.774,180.774,0,0,0,181.8,201.973Z" transform="translate(-0.158 -21.227)" fill="none" stroke="#666" stroke-width="0.895"/>
      </g>
    </g>
    <g id="Artwork_4-3" data-name="Artwork 4" transform="translate(848.699 1260.298)">
      <g id="Group_83-3" data-name="Group 83" transform="translate(-128.401 -180.298)">
        <path id="Path_675-3" data-name="Path 675" d="M2,.01a180.759,180.759,0,0,0,171.44,180.5h.009q4.174-.2,8.4-.215A180.738,180.738,0,0,0,2,.01Z" transform="translate(-0.21 -0.001)" fill="none" stroke="#666" stroke-width="0.895"/>
        <path id="Path_676-3" data-name="Path 676" d="M121,0a74.266,74.266,0,0,0,74.267,74.267A74.266,74.266,0,0,0,269.534,0" transform="translate(-12.732)" fill="none" stroke="#e6e7e8" stroke-width="0.895"/>
        <path id="Path_677-3" data-name="Path 677" d="M0,266.525c.3.009.6.009.895.009A74.267,74.267,0,1,0,.895,118c-.3,0-.6,0-.895.009" transform="translate(0 -12.416)" fill="none" stroke="#939598" stroke-width="0.895"/>
        <path id="Path_678-3" data-name="Path 678" d="M181.8,201.973v-.009c-2.819-.009-5.619-.089-8.4-.224h-.009A180.749,180.749,0,0,0,1.5,381.824H19.154A180.774,180.774,0,0,0,181.8,201.973Z" transform="translate(-0.158 -21.227)" fill="none" stroke="#666" stroke-width="0.895"/>
      </g>
    </g>
  </g>
</svg>
