<svg xmlns="http://www.w3.org/2000/svg" width="825" height="825" viewBox="0 0 825 825">
  <g id="Artwork_2" data-name="Artwork 2" transform="translate(0.5 0.5)" style="mix-blend-mode: overlay;isolation: isolate">
    <g id="Group_18" data-name="Group 18" transform="translate(0)">
      <path id="Path_158" data-name="Path 158" d="M540,1080.5h-.8c.265,0,.539,0,.8-.008Z" transform="translate(-127.195 -256.497)" fill="none" stroke="#5656ff" stroke-width="1"/>
      <path id="Path_159" data-name="Path 159" d="M810.125,1080.5h-.8c.265,0,.539,0,.8-.008Z" transform="translate(-603.32 -256.497)" fill="none" stroke="#5656ff" stroke-width="1"/>
      <path id="Path_160" data-name="Path 160" d="M809.847,0h.4c109.413,0,198.911,85.313,205.6,193.045V205.6h-206Z" transform="translate(-809.444)" fill="none" stroke="#5656ff" stroke-width="1"/>
      <path id="Path_161" data-name="Path 161" d="M810.125,270.125v.008c-.265-.008-.539-.008-.8-.008Z" transform="translate(-603.32 -64.125)" fill="none" stroke="#5656ff" stroke-width="1"/>
      <path id="Path_162" data-name="Path 162" d="M1015,540.5v206c-113.767,0-206-92.233-206-206h206Z" transform="translate(-807.951 -128.309)" fill="none" stroke="#5656ff" stroke-width="1"/>
      <path id="Path_163" data-name="Path 163" d="M810.375,481.841c107.579,0,195.9-82.473,205.2-187.637V481.841Z" transform="translate(-809.57 -69.841)" fill="none" stroke="#5656ff" stroke-width="1"/>
      <path id="Path_164" data-name="Path 164" d="M1079.445,540.247v-.008c.265.008.539.008.8.008Z" transform="translate(-1079.445 -128.247)" fill="none" stroke="#5656ff" stroke-width="1"/>
      <path id="Path_165" data-name="Path 165" d="M810.125,270.133q0,9.282-.8,18.354V270.125C809.585,270.125,809.859,270.125,810.125,270.133Z" transform="translate(-603.32 -64.125)" fill="none" stroke="#5656ff" stroke-width="1"/>
      <path id="Path_166" data-name="Path 166" d="M1016.375,270.125v18.363c-9.294,105.165-97.616,187.637-205.2,187.637-.265,0-.539,0-.8-.008C810.383,362.35,902.608,270.125,1016.375,270.125Z" transform="translate(-810.375 -64.125)" fill="none" stroke="#5656ff" stroke-width="1"/>
      <path id="Path_167" data-name="Path 167" d="M476.125,540.25v206c-113.767,0-206-92.233-206-206h206Z" transform="translate(141.875 -128.25)" fill="none" stroke="#5656ff" stroke-width="1"/>
      <path id="Path_168" data-name="Path 168" d="M540,810.383c-.266-.008-.539-.008-.8-.008h.8Z" transform="translate(-127.195 -192.375)" fill="none" stroke="#5656ff" stroke-width="1"/>
      <path id="Path_169" data-name="Path 169" d="M810.125,810.383c-.265-.008-.539-.008-.8-.008h.8Z" transform="translate(-603.32 -192.375)" fill="none" stroke="#5656ff" stroke-width="1"/>
      <path id="Path_170" data-name="Path 170" d="M746.25,746.25v-206h-206C654.017,540.25,746.25,632.483,746.25,746.25Z" transform="translate(-334.25 -128.25)" fill="none" stroke="#5656ff" stroke-width="1"/>
      <path id="Path_171" data-name="Path 171" d="M746.25,746.25c0-113.767-92.233-206-206-206C540.25,654.017,632.483,746.25,746.25,746.25Z" transform="translate(-334.25 -128.25)" fill="none" stroke="#5656ff" stroke-width="1"/>
      <path id="Path_172" data-name="Path 172" d="M694.75,462.341a102.937,102.937,0,1,1,42.415-46.881A102.551,102.551,0,0,1,694.75,462.341Z" transform="translate(-334.25 -64.125)" fill="none" stroke="#5656ff" stroke-width="1"/>
      <path id="Path_173" data-name="Path 173" d="M945.438,913.375a103,103,0,0,1,103-103v206A103,103,0,0,1,945.438,913.375Z" transform="translate(-945.438 -192.375)" fill="none" stroke="#5656ff" stroke-width="1"/>
      <path id="Path_174" data-name="Path 174" d="M591.75,824.159a103.027,103.027,0,0,1,0,178.432,99.445,99.445,0,0,1-9.166,4.7,102.44,102.44,0,0,1-42.334,9.085v-206A102.553,102.553,0,0,1,591.75,824.159Z" transform="translate(-231.25 -192.375)" fill="none" stroke="#5656ff" stroke-width="1"/>
      <path id="Path_175" data-name="Path 175" d="M829.812,824.159a102.994,102.994,0,0,1-50.7,192.207c-.265.008-.539.008-.8.008a103,103,0,1,1,0-206c.265,0,.539,0,.8.008A102.422,102.422,0,0,1,829.812,824.159Z" transform="translate(-572.312 -192.375)" fill="none" stroke="#5656ff" stroke-width="1"/>
      <path id="Path_176" data-name="Path 176" d="M507.383,913.378A103.005,103.005,0,0,1,405.71,1016.369h-.523V810.386A102.992,102.992,0,0,1,507.383,913.378Z" transform="translate(7.618 -192.378)" fill="none" stroke="#5656ff" stroke-width="1"/>
      <path id="Path_177" data-name="Path 177" d="M508.187,270.125a103,103,0,1,0,0,206v-206Z" transform="translate(6.813 -64.125)" fill="none" stroke="#5656ff" stroke-width="1"/>
      <path id="Path_178" data-name="Path 178" d="M103,810.375H309a103,103,0,0,1-103,103,103,103,0,0,1,103,103H103a103,103,0,0,1,0-206Z" transform="translate(515 -192.375)" fill="none" stroke="#5656ff" stroke-width="1"/>
    </g>
  </g>
</svg>
