<svg id="icon-strategy" xmlns="http://www.w3.org/2000/svg" width="88" height="88" viewBox="0 0 88 88">
  <path id="Path_649" data-name="Path 649" d="M45.563,52.858h0a24.2,24.2,0,0,0-4.1-11,26.153,26.153,0,0,1-4.51-12.9h3.6a3.3,3.3,0,0,0,3.3-3.3V24.533a3.3,3.3,0,0,0-3.3-3.3H36.845a7.81,7.81,0,1,0-9.982,0h-3.63a3.273,3.273,0,0,0-3.3,3.3v.99a3.3,3.3,0,0,0,3.3,3.3h3.08a24.5,24.5,0,0,1-3.85,12.4,23.98,23.98,0,0,0-3.74,11.55h-.66a4.84,4.84,0,0,0-4.812,4.84v1.512a4.84,4.84,0,0,0,4.812,4.9h27.5a4.812,4.812,0,0,0,4.813-4.812V57.7a4.812,4.812,0,0,0-4.812-4.84ZM26.038,15.21a5.748,5.748,0,1,0,.055,0Zm-4.07,10.312V24.4a1.238,1.238,0,0,1,1.265-1.265H40.5A1.238,1.238,0,0,1,41.74,24.4v1.127A1.265,1.265,0,0,1,40.5,26.788H23.233A1.265,1.265,0,0,1,21.968,25.523Zm2.2,16.693a26.317,26.317,0,0,0,4.125-13.393h6.545A28.27,28.27,0,0,0,39.65,42.765a22,22,0,0,1,3.822,10.01H20.813A21.835,21.835,0,0,1,24.168,42.3Zm24.145,17a2.75,2.75,0,0,1-2.75,2.75h-27.5a2.75,2.75,0,0,1-2.75-2.75V57.7a2.75,2.75,0,0,1,2.75-2.75h27.5a2.75,2.75,0,0,1,2.75,2.75Z" transform="translate(23.187 12.977)" fill="#fff"/>
  <path id="Path_650" data-name="Path 650" d="M24.256,59.22h-11.8A2.09,2.09,0,0,1,10.4,57.158V55.232a2.063,2.063,0,0,1,2.063-2.062h15.9a1.045,1.045,0,0,0,0-2.062H14.439a23.842,23.842,0,0,1,6.3-13.75c2.75-3.63,5.5-7.04,3.217-11a2.227,2.227,0,0,0-1.4-1.1c-1.513-.358-3.3.8-5.5,2.31a17.93,17.93,0,0,1-6.435,3.163,2.75,2.75,0,0,1-2.942-1.458,3.685,3.685,0,0,1,.66-4.015,26.345,26.345,0,0,0,4.868-6.49,13.31,13.31,0,0,1,4.62-5.5l.55-.192V12.5A17.627,17.627,0,0,1,20.1,7.163a30.937,30.937,0,0,1,4.372,4.015A7.618,7.618,0,0,0,28.051,13.1c2.09.743,4.455,1.6,5.335,3.383a1.027,1.027,0,1,0,1.842-.907,10.642,10.642,0,0,0-6.49-4.4,7.755,7.755,0,0,1-2.613-1.21,41.249,41.249,0,0,0-5.8-5.225L19.334,4l-.55,1.1a26.675,26.675,0,0,0-2.448,6.792,16.17,16.17,0,0,0-4.895,5.857A24.173,24.173,0,0,1,6.9,23.718,5.5,5.5,0,0,0,5.776,30.1a4.62,4.62,0,0,0,5.06,2.585,19.25,19.25,0,0,0,7.288-3.465c1.375-.935,3.272-2.2,4.07-1.9,1.513,2.75,0,5-3.052,8.8A25.878,25.878,0,0,0,12.4,51.162a4.1,4.1,0,0,0-4.07,4.1v1.925a4.125,4.125,0,0,0,4.125,4.1h11.8a1.017,1.017,0,0,0,1.018-1.017A1.045,1.045,0,0,0,24.256,59.22Z" transform="translate(9.129 7)" fill="#fff"/>
  <rect id="Rectangle_28" data-name="Rectangle 28" width="88" height="88" fill="none"/>
</svg>
