<svg id="icon-search" xmlns="http://www.w3.org/2000/svg" width="88" height="88" viewBox="0 0 88 88">
  <path id="Path_648" data-name="Path 648" d="M67.085,61.788l-11-11a4.813,4.813,0,0,0-5.8-.8l-3.355-3.355A24.469,24.469,0,1,0,45,48.423l3.438,3.437a4.923,4.923,0,0,0,.8,5.83l11,11a4.9,4.9,0,1,0,6.848-6.9ZM7,29.008a22.33,22.33,0,1,1,22.33,22.33A22.33,22.33,0,0,1,7,29.008Zm58.19,37.73a2.227,2.227,0,0,1-3.135,0l-11-11A2.228,2.228,0,1,1,54.215,52.6l11,11a2.228,2.228,0,0,1-.028,3.135Z" transform="translate(7.577 6.962)" fill="#fff"/>
  <rect id="Rectangle_27" data-name="Rectangle 27" width="88" height="88" fill="none"/>
</svg>
