<svg id="icon-design" xmlns="http://www.w3.org/2000/svg" width="88" height="88" viewBox="0 0 88 88">
  <rect id="Rectangle_26" data-name="Rectangle 26" width="88" height="88" fill="none"/>
  <path id="Path_646" data-name="Path 646" d="M63.524,14.58a5.06,5.06,0,1,0-4.95-6.05H40.781a4.4,4.4,0,0,0-8.58,0H14.629a5.032,5.032,0,1,0,0,2.035H25.244C17.351,14.91,13.089,25.2,12.731,32.043a5.032,5.032,0,1,0,2.035,0c.468-7.59,6.573-20.6,17.435-21.422a4.455,4.455,0,0,0,4.29,3.355,4.4,4.4,0,0,0,4.263-3.355c11,.605,17.1,13.75,17.545,21.45a5.087,5.087,0,1,0,2.035,0c-.358-6.737-4.593-17.1-12.485-21.45H58.574a5.06,5.06,0,0,0,4.95,3.96Zm0-8.058a3.025,3.025,0,1,1-2.943,3.025,3.025,3.025,0,0,1,2.943-3.025ZM9.679,12.573A3.025,3.025,0,1,1,12.7,9.548,3.025,3.025,0,0,1,9.679,12.573Zm7.068,24.42a3.025,3.025,0,1,1-2.915-3.025A3.025,3.025,0,0,1,16.746,36.993ZM36.491,11.94a2.393,2.393,0,1,1,2.393-2.393,2.393,2.393,0,0,1-2.393,2.393ZM62.506,36.993a3.025,3.025,0,1,1-3.025-3.025A3.025,3.025,0,0,1,62.506,36.993Z" transform="translate(8.169 7.805)"/>
  <path id="Path_647" data-name="Path 647" d="M10.18,33.525l.468.577c2.2,2.943,7.727,11,8.25,14.657a7.4,7.4,0,0,0-4.922,6.958V59.76H39.55V55.717a7.425,7.425,0,0,0-4.4-6.765,30.25,30.25,0,0,1,7.893-14.878l.55-.632L26.845,10.59Zm19.057-1.567v4.757h-4.73V31.958Zm8.25,23.76v2.007H16.01V55.717a5.5,5.5,0,0,1,5.362-5.362h10.78a5.5,5.5,0,0,1,5.362,5.362Zm-4.345-7.4H20.932c-.825-4.482-6.462-12.4-8.25-14.823L25.827,15.4V29.95H22.472v8.773h8.8V29.95H27.89V15.457L40.98,33.333A32.532,32.532,0,0,0,33.17,48.32Z" transform="translate(17.815 18.533)"/>
</svg>
