<svg id="icon-linkedIn" xmlns="http://www.w3.org/2000/svg" width="64" height="64" viewBox="0 0 64 64">
  <rect id="Rectangle_34" data-name="Rectangle 34" width="64" height="64" fill="none"/>
  <path id="Subtraction_1" data-name="Subtraction 1" d="M-78.921-4677.759h-36.918A3.172,3.172,0,0,1-119-4680.88v-37a3.171,3.171,0,0,1,3.16-3.12h36.921a3.172,3.172,0,0,1,3.159,3.12v37A3.173,3.173,0,0,1-78.921-4677.759ZM-102.16-4704.8v20.761h6.419v-10.2c0-2.621.456-5.3,3.84-5.3,3.34,0,3.34,3.039,3.34,5.48v10h6.421v-11.32c0-3.311-.437-5.487-1.418-7.057-1.2-1.928-3.254-2.865-6.266-2.865H-90l-.176,0A6.766,6.766,0,0,0-96-4701.959v-2.841Zm-10.441,0v20.639h6.421V-4704.8Zm3.22-10.261a3.762,3.762,0,0,0-3.72,3.68,3.711,3.711,0,0,0,2.269,3.465,3.706,3.706,0,0,0,1.45.294,3.7,3.7,0,0,0,2.617-1.075,3.707,3.707,0,0,0,.825-4.059A3.708,3.708,0,0,0-109.38-4715.06Z" transform="translate(129.38 4731.38)" fill="#fff"/>
</svg>
