<svg id="icon-instagram" xmlns="http://www.w3.org/2000/svg" width="64" height="64" viewBox="0 0 64 64">
  <rect id="Rectangle_33" data-name="Rectangle 33" width="64" height="64" fill="none"/>
  <path id="Path_679" data-name="Path 679" d="M32,14c5.87,0,6.57,0,8.88.12a12.28,12.28,0,0,1,4.09.76A7.37,7.37,0,0,1,49.14,19a12.28,12.28,0,0,1,.76,4.09c.1,2.31.12,3,.12,8.88s0,6.57-.12,8.88A12.28,12.28,0,0,1,49.14,45,7.37,7.37,0,0,1,45,49.14a12.28,12.28,0,0,1-4.09.76c-2.31.1-3,.12-8.88.12s-6.57,0-8.88-.12A12.28,12.28,0,0,1,19,49.14,7.37,7.37,0,0,1,14.86,45a12.28,12.28,0,0,1-.76-4.09C14,38.57,14,37.87,14,32s0-6.57.12-8.88A12.28,12.28,0,0,1,14.86,19,7.37,7.37,0,0,1,19,14.86a12.28,12.28,0,0,1,4.09-.76c2.31-.1,3-.12,8.88-.12m0-4c-6,0-6.72,0-9.06.13a16.09,16.09,0,0,0-5.34,1,11.31,11.31,0,0,0-6.43,6.43,16.09,16.09,0,0,0-1,5.34C10,25.28,10,26,10,32s0,6.72.13,9.06a16.09,16.09,0,0,0,1,5.34,11.31,11.31,0,0,0,6.43,6.43,16.09,16.09,0,0,0,5.34,1C25.28,54,26,54,32,54s6.72,0,9.06-.13a16.09,16.09,0,0,0,5.34-1,11.31,11.31,0,0,0,6.43-6.43,16.09,16.09,0,0,0,1-5.34C54,38.72,54,38,54,32s0-6.72-.13-9.06a16.09,16.09,0,0,0-1-5.34,11.31,11.31,0,0,0-6.43-6.43,16.09,16.09,0,0,0-5.34-1C38.72,10,38,10,32,10Z" fill="#fff"/>
  <path id="Path_680" data-name="Path 680" d="M32,20.71A11.29,11.29,0,1,0,43.29,32,11.29,11.29,0,0,0,32,20.71Zm0,18.62A7.33,7.33,0,1,1,39.33,32,7.33,7.33,0,0,1,32,39.33Z" fill="#fff"/>
  <circle id="Ellipse_1" data-name="Ellipse 1" cx="2.64" cy="2.64" r="2.64" transform="translate(41.1 17.62)" fill="#fff"/>
</svg>
