<svg id="icon-twitter" xmlns="http://www.w3.org/2000/svg" width="64" height="64" viewBox="0 0 64 64">
  <rect id="Rectangle_35" data-name="Rectangle 35" width="64" height="64" fill="none"/>
  <path id="Path_684" data-name="Path 684" d="M55.71,17.29a19.37,19.37,0,0,1-5.59,1.54,9.77,9.77,0,0,0,4.28-5.39,19.19,19.19,0,0,1-6.18,2.36,9.73,9.73,0,0,0-16.83,6.66,10.14,10.14,0,0,0,.25,2.22,27.63,27.63,0,0,1-20-10.17,9.73,9.73,0,0,0,3,13,9.69,9.69,0,0,1-4.41-1.22v.13A9.75,9.75,0,0,0,18,36a9.9,9.9,0,0,1-2.57.34,9.31,9.31,0,0,1-1.83-.18,9.74,9.74,0,0,0,9.09,6.76,19.54,19.54,0,0,1-14.4,4A27.52,27.52,0,0,0,23.2,51.27c17.9,0,27.69-14.82,27.69-27.68V22.33a19.7,19.7,0,0,0,4.82-5.04Z" fill="#fff"/>
</svg>
