<svg id="icon-multiArrowDown" xmlns="http://www.w3.org/2000/svg" width="56" height="56" viewBox="0 0 56 56">
  <rect id="Rectangle_48" data-name="Rectangle 48" width="56" height="56" fill="none"/>
  <path id="Path_811" data-name="Path 811" d="M39.807,16.586,24.249,32.634,8.692,16.586a2.4,2.4,0,0,0-2.9-.28,1.488,1.488,0,0,0-.332,2.38L22.622,36.4a2.363,2.363,0,0,0,3.255,0l17.167-17.71a1.488,1.488,0,0,0-.333-2.38,2.4,2.4,0,0,0-2.905.28Z" transform="translate(3.751 11.956)" fill="#fff200"/>
  <path id="Path_812" data-name="Path 812" d="M39.807,10.556,24.249,26.6,8.692,10.556a2.4,2.4,0,0,0-2.9-.28,1.47,1.47,0,0,0-.333,2.362L22.622,30.366a2.362,2.362,0,0,0,3.255,0L43.044,12.639a1.47,1.47,0,0,0-.333-2.363,2.4,2.4,0,0,0-2.905.28Z" transform="translate(3.751 7.434)" fill="#fff200" opacity="0.5"/>
  <path id="Path_813" data-name="Path 813" d="M22.622,24.474a2.415,2.415,0,0,0,3.255,0L43.044,6.746a1.487,1.487,0,0,0-.333-2.38,2.4,2.4,0,0,0-2.9.28L24.249,20.694,8.692,4.646a2.4,2.4,0,0,0-2.9-.28,1.487,1.487,0,0,0-.333,2.38Z" transform="translate(3.751 3.001)" fill="#fff200" opacity="0.25"/>
</svg>
