<svg xmlns="http://www.w3.org/2000/svg" width="136" height="67.253" viewBox="0 0 136 67.253">
  <g id="Logo-full-black" transform="translate(68 33.626)">
    <g id="Logo-full" transform="translate(-68 -33.626)">
      <g id="Logo-text" transform="translate(8.967 8.967)">
        <path id="Path_834" data-name="Path 834" d="M50.52,55.246H45.289V51.011h1.893c5.254,0,8.339-2.65,8.339-8.1,0-4.934-2.809-7.341-8.339-7.341H35.575v3.985H39.56V55.246H35.575v3.985H50.52ZM45.04,39.8H46.7c1.474,0,2.947.676,2.947,3.225,0,2.518-1.227,3.5-2.825,3.5H45.04Z" transform="translate(-35.575 -35.568)"/>
        <path id="Path_835" data-name="Path 835" d="M120.561,55.245h-3.985v3.985h19.179v-8.22h-4.733V55h-4.733v-5.48h5.729V45.033h-5.729v-5.48h4.733v3.736h4.733V35.568H116.575v3.985h3.985Z" transform="translate(-96.399 -35.568)"/>
        <path id="Path_836" data-name="Path 836" d="M224.476,35.568h-12.7v3.985h3.736V49.765h-.122l-8.44-14.2h-9.373v3.985h3.985V55.245h-3.736v3.985h12.952V55.245h-3.985V44.784h.121l8.57,14.447h5.009V39.553h3.985Z" transform="translate(-157.223 -35.568)"/>
        <path id="Path_837" data-name="Path 837" d="M323.524,39.8h3.487v5.729h4.982V35.568H309.575v9.963h4.982V39.8h3.487V55.245h-4.733v3.985h14.945V55.245h-4.733Z" transform="translate(-241.326 -35.568)"/>
        <path id="Path_838" data-name="Path 838" d="M411.779,55.246l-4.435-15.692h2.909V35.568H395.308v3.985h2.776l-4.5,15.692h-3.012v3.985h11.209V55.246h-2.712l.709-2.989h5.669l.678,2.989h-2.85v3.985h11.458V55.246Zm-10.989-7.473,1.775-7.473h.062l1.684,7.473Z" transform="translate(-302.15 -35.568)"/>
        <path id="Path_839" data-name="Path 839" d="M48.133,139.568H36.575v3.985H40.56v15.692H36.575v3.985h11.5c6.978,0,11.224-3.762,11.224-11.983C59.3,142.692,54.746,139.568,48.133,139.568Zm.039,19.179H46.289V143.8h1.792c3.463,0,5.468,1.549,5.468,7.5C53.549,157.442,51.605,158.747,48.172,158.747Z" transform="translate(-36.326 -113.663)"/>
        <path id="Path_840" data-name="Path 840" d="M127.575,143.553h3.985v15.692h-3.985v3.985h19.179v-8.22h-4.982V159H137.04v-5.48h5.729v-4.733H137.04v-5.231h4.733v3.736h4.982v-7.722H127.575Z" transform="translate(-104.659 -113.663)"/>
        <path id="Path_841" data-name="Path 841" d="M208.575,143.553h4.234v15.692h-4.234v3.985h19.179v-8.22h-4.733V159h-4.733v-5.48h5.729v-4.733h-5.729v-5.231h4.733v3.736h4.733v-7.722H208.575Z" transform="translate(-165.484 -113.663)"/>
        <path id="Path_842" data-name="Path 842" d="M301.928,139.568H290.575v3.985h3.985v15.692h-3.985v3.985H305.52v-3.985h-5.48v-4.234h1.888c5.239,0,8.316-2.65,8.316-8.1C310.244,141.974,307.442,139.568,301.928,139.568Zm-.107,10.96H300.04V143.8H301.7c1.474,0,2.947.676,2.947,3.225C304.646,149.545,303.418,150.528,301.821,150.528Z" transform="translate(-227.059 -113.663)"/>
      </g>
      <g id="Group_104" data-name="Group 104" transform="translate(121.553 8.967)">
        <path id="Path_843" data-name="Path 843" d="M488.571,38.557V36.066h-1v-.5h2.491v.5h-1v2.491Zm1.744,0V35.568h.575l.827,2.387.8-2.387h.787v2.989h-.5V36.048l-.844,2.509h-.276l-.873-2.545v2.545Z" transform="translate(-487.575 -35.568)"/>
      </g>
      <rect id="Rectangle_52" data-name="Rectangle 52" width="136" height="67.253" fill="none"/>
    </g>
  </g>
</svg>
